<svg xmlns="http://www.w3.org/2000/svg" viewBox="0 0 300 50">
  <style>
    .text { fill: #fed136; }
    .icon { fill: #fed136; }
  </style>
  <g class="icon">
    <path d="M25 10c-8.284 0-15 6.716-15 15 0 8.284 6.716 15 15 15 8.284 0 15-6.716 15-15 0-8.284-6.716-15-15-15zm0 27c-6.627 0-12-5.373-12-12s5.373-12 12-12 12 5.373 12 12-5.373 12-12 12z"/>
    <circle cx="25" cy="25" r="5"/>
    <path d="M35 15L15 35M15 15L35 35"/>
  </g>
  <g class="text">
    <path d="M60 15h5v20h-5zM65 15h15v4h-10v4h8v4h-8v4h10v4h-15zM95 15h-5v20h15v-4h-10zM120 15h-10v20h5v-8h5c2.8 0 5-2.2 5-6s-2.2-6-5-6zm0 8h-5v-4h5c.5 0 1 .7 1 2s-.5 2-1 2zM140 15h-10v20h5v-8h5c2.8 0 5-2.2 5-6s-2.2-6-5-6zm0 8h-5v-4h5c.5 0 1 .7 1 2s-.5 2-1 2zM170 20l5 15h-4l-1-3h-8l-1 3h-4l5-15h8zm-3 8l-2-6-2 6h4zM190 15h-10v20h5v-8h5c2.8 0 5-2.2 5-6s-2.2-6-5-6zm0 8h-5v-4h5c.5 0 1 .7 1 2s-.5 2-1 2zM210 15h-15v4h5v16h5V19h5zM220 15h5v20h-5zM230 15h15v4h-10v4h8v4h-8v4h10v4h-15z"/>
  </g>
</svg>
